<svg xmlns="http://www.w3.org/2000/svg" width="299.195633" height="81.097225" viewBox="0 0 79.162178 21.456974">
  <defs>
    <clipPath id="a" clipPathUnits="userSpaceOnUse">
      <path fill="currentColor" d="M1087.609 34.747h123.634v33.511h-123.634z"/>
    </clipPath>
    <clipPath id="b" clipPathUnits="userSpaceOnUse">
      <path fill="currentColor" d="M1087.609 34.747h123.635v33.512h-123.635z"/>
    </clipPath>
  </defs>
  <g clip-path="url(#a)" transform="matrix(.6403 0 0 -.6403 -696.39075 43.705353)">
    <path fill="currentColor" d="m1106.7297 60.4064-.008-9.379c4.487 0 7.428 4.469 7.428 8.932 0 2.445-1.06 5.877-3.985 5.877-2.715 0-3.43-3.22-3.435-5.43"/>
    <path fill="currentColor" d="M1114.624 64.8251c1.412-2.02 2.449-5.996.397-10.138-2.53-5.108-5.576-6.054-8.166-6.781v-13.159c8.169 1.166 14.455 8.17 14.455 16.661 0 5.483-2.63 10.34-6.686 13.417"/>
  </g>
  <g clip-path="url(#b)" transform="matrix(.6403 0 0 -.6403 -696.39075 43.705353)">
    <path fill="currentColor" d="M1101.752 48.3192c-5.131 1.297-11.601 6.533-12.382 7.206h5.125c2.159-1.571 4.938-3.336 7.257-4.105v7.012c0 1.524-.003 5.144 4.109 7.814 1.548 1.005 3.367 1.088 4.946.765-1.96.799-4.1 1.247-6.347 1.247-9.306 0-16.85-7.544-16.85-16.85 0-8.382 6.127-15.315 14.142-16.613zm24.979 15.7278h2.66V51.982h-2.66zm6.6986-12.0645v12.065h2.58l5.409-8.082v8.082h2.462v-12.065h-2.661l-5.328 7.898v-7.898Zm13.0969 3.9256 2.588.23c.156-.795.472-1.38.948-1.752.476-.374 1.119-.56 1.927-.56.857 0 1.502.166 1.938.498.434.332.651.72.651 1.164 0 .286-.092.528-.275.729-.182.2-.501.374-.957.522-.311.099-1.021.275-2.129.527-1.426.323-2.426.722-3.001 1.193-.809.664-1.214 1.474-1.214 2.428 0 .614.191 1.189.571 1.724.38.535.929.943 1.645 1.222.715.28 1.58.42 2.592.42 1.653 0 2.898-.332 3.734-.996.836-.664 1.274-1.55 1.316-2.658l-2.66-.107c-.114.62-.358 1.066-.732 1.337-.375.272-.936.408-1.685.408-.773 0-1.377-.146-1.815-.436-.282-.187-.422-.437-.422-.749 0-.286.131-.53.395-.733.335-.258 1.15-.527 2.444-.806 1.294-.28 2.251-.57 2.871-.868.62-.3 1.105-.708 1.456-1.227.35-.518.525-1.159.525-1.921 0-.692-.21-1.339-.628-1.943-.42-.603-1.013-1.052-1.78-1.345-.766-.294-1.722-.44-2.866-.44-1.666 0-2.945.352-3.837 1.057-.893.705-1.426 1.732-1.6 3.082m15.7386-3.9256v10.024h-3.909v2.041h10.468v-2.041h-3.899v-10.024Zm8.5979 12.0645h2.661V51.982h-2.661zm8.6278-12.0645v10.024h-3.909v2.041h10.468v-2.041h-3.899v-10.024Zm8.3404 12.0648h2.659v-6.534c0-1.037.033-1.709.099-2.016.114-.494.385-.891.813-1.19.429-.299 1.014-.448 1.757-.448.754 0 1.324.141 1.707.424.384.282.615.629.692 1.04.078.412.117 1.095.117 2.05v6.674h2.66v-6.336c0-1.449-.072-2.472-.216-3.071-.143-.598-.409-1.102-.796-1.514-.385-.411-.902-.739-1.549-.983-.647-.244-1.491-.366-2.535-.366-1.257 0-2.211.133-2.861.399-.651.266-1.164.612-1.541 1.037-.378.425-.626.871-.746 1.337-.175.691-.26 1.712-.26 3.062Zm16.0947-12.0648v10.024h-3.908v2.041h10.468v-2.041h-3.901v-10.024Zm-74.5353-5.897v-3.432h1.453c1.046 0 1.746.064 2.099.19.352.126.629.324.829.594.2.27.301.583.301.94 0 .44-.141.803-.422 1.089-.281.286-.637.465-1.067.536-.317.056-.954.083-1.911.083Zm-2.66-10.023v12.064h4.265c1.616 0 2.669-.06 3.16-.181.754-.181 1.386-.575 1.894-1.181.509-.606.763-1.39.763-2.349 0-.741-.146-1.364-.439-1.869-.294-.504-.666-.901-1.118-1.189-.452-.288-.911-.479-1.377-.572-.635-.115-1.553-.173-2.756-.173h-1.732v-4.55zm17.8404 4.7808-1.818 4.469-1.782-4.469Zm4.899-4.781h-2.894l-1.152 2.74h-5.267l-1.093-2.74h-2.821l5.136 12.064h2.816zm.3775 3.9249 2.588.231c.156-.796.472-1.38.948-1.753s1.118-.56 1.928-.56c.856 0 1.502.166 1.936.498.434.332.651.72.651 1.164 0 .286-.091.529-.274.729-.183.2-.502.374-.957.522-.311.099-1.021.275-2.13.527-1.425.324-2.425.721-3 1.194-.81.663-1.214 1.473-1.214 2.427 0 .615.191 1.189.571 1.724.38.535.928.943 1.645 1.223.715.279 1.579.419 2.592.419 1.653 0 2.898-.332 3.733-.996.836-.664 1.275-1.55 1.317-2.658l-2.66-.107c-.114.62-.358 1.066-.733 1.338-.374.271-.936.407-1.684.407-.773 0-1.378-.145-1.816-.436-.281-.187-.422-.436-.422-.749 0-.285.132-.53.396-.733.335-.258 1.15-.526 2.444-.806s2.251-.569 2.871-.869c.619-.298 1.105-.707 1.455-1.226.351-.518.526-1.159.526-1.921 0-.692-.209-1.339-.629-1.942-.42-.604-1.012-1.053-1.779-1.346-.767-.293-1.722-.44-2.867-.44-1.665 0-2.944.352-3.837 1.057-.892.705-1.425 1.732-1.599 3.082m15.362-3.9252v10.023h-3.909v2.041h10.468v-2.041h-3.899V36.062Zm8.6264 0v12.064h9.759v-2.041h-7.099v-2.674h6.605V41.37h-6.605v-3.267h7.35v-2.041Zm12.2475 12.0644h2.659v-6.534c0-1.037.033-1.709.1-2.016.114-.494.384-.891.813-1.19.428-.299 1.014-.448 1.757-.448.754 0 1.324.141 1.707.424.383.282.614.629.691 1.041.079.411.117 1.095.117 2.049v6.674h2.661v-6.337c0-1.448-.072-2.471-.216-3.069-.143-.598-.409-1.103-.796-1.514-.386-.412-.903-.74-1.55-.984-.646-.244-1.491-.366-2.533-.366-1.259 0-2.212.133-2.863.399-.649.266-1.164.612-1.541 1.037-.378.425-.625.871-.746 1.337-.173.691-.26 1.712-.26 3.062Zm15.9768-5.1021h1.968c1.277 0 2.073.049 2.391.148.316.099.566.269.745.51.18.242.27.543.27.906 0 .406-.119.733-.356.983-.235.25-.57.407-1.001.473-.215.028-.863.041-1.941.041h-2.076Zm-2.66-6.962v12.064h5.598c1.408 0 2.431-.108 3.069-.325.639-.216 1.149-.602 1.532-1.156.384-.555.575-1.188.575-1.901 0-.905-.29-1.653-.871-2.243-.581-.59-1.449-.961-2.605-1.115.575-.307 1.049-.644 1.423-1.012.375-.368.88-1.021 1.514-1.959l1.609-2.353h-3.181l-1.922 2.626c-.683.937-1.151 1.528-1.402 1.773-.252.244-.518.411-.8.501-.282.091-.729.136-1.339.136h-.54v-5.036z"/>
  </g>
</svg>
